<?xml version="1.0" encoding="utf-8"?>
<!-- Generator: Adobe Illustrator 24.0.1, SVG Export Plug-In . SVG Version: 6.00 Build 0)  -->
<svg version="1.1" id="Calque_1" xmlns="http://www.w3.org/2000/svg" xmlns:xlink="http://www.w3.org/1999/xlink" x="0px" y="0px"
	 viewBox="0 0 210 297" style="enable-background:new 0 0 210 297;" xml:space="preserve">
<style type="text/css">
	.st0{fill:#C6C6C6;}
	.st1{font-family:'GothamBold';}
	.st2{font-size:10px;}
	.st3{fill:#FFFFFF;}
	.st4{font-size:22.9335px;}
</style>
<path class="st0" d="M157.44,97.64c-0.46-0.33-0.95-0.58-1.48-0.75c0.15-1.95-0.7-3.85-2.29-4.99c-1.59-1.14-3.66-1.34-5.46-0.57
	c-0.33-0.45-0.73-0.84-1.19-1.17c-2.56-1.84-5.61-1.38-7.41,1.12c-1.7,2.37-1.43,5.24,0.56,7.1l-3.66,5.56
	c-0.28,0.43-0.3,1.03-0.04,1.47c0.13,0.22,0.85,1.15,4.69,3.9c2.95,2.12,4.98,3.04,5.06,3.07c0.51,0.23,1.16,0.06,1.51-0.39
	l4.1-5.24c2.4,1.3,5.21,0.63,6.91-1.73C160.54,102.52,160.01,99.49,157.44,97.64z M142.11,107.99c-2.88-2.07-3.87-3.01-4.16-3.33
	l1.45-2.21c0.63,0.55,1.9,1.57,4.31,3.31c2,1.44,3.67,2.49,4.53,3.01l-1.58,2.02C146.06,110.49,144.35,109.6,142.11,107.99z
	 M152.14,105.03l-0.62-0.44l-2.6,3.32c-0.27-0.16-0.65-0.4-1.11-0.69l1.17-1.63c0.36-0.5,0.02-0.75-0.39-0.45l-1.91,1.34
	c-0.54-0.36-1.14-0.77-1.79-1.22l0.96-1.97c0.29-0.54-0.12-0.8-0.51-0.37l-1.56,1.54c-0.66-0.48-1.22-0.9-1.7-1.26l0.67-2.26
	c0.15-0.48-0.19-0.72-0.55-0.22l-1.19,1.65c-0.47-0.37-0.79-0.65-1-0.84l2.33-3.55l-0.62-0.44c-1.81-1.3-2.14-3.49-0.81-5.34
	c1.28-1.78,3.31-2.06,5.17-0.73c0.47,0.34,0.86,0.77,1.14,1.29l0.39,0.71l0.7-0.42c1.39-0.83,3.12-0.76,4.41,0.16
	c1.29,0.92,1.9,2.54,1.56,4.13l-0.17,0.8l0.79,0.15c0.58,0.11,1.12,0.33,1.59,0.67c1.86,1.34,2.24,3.35,0.96,5.13
	C156.13,105.94,153.94,106.33,152.14,105.03z"/>
<text transform="matrix(1 0 0 1 49.8895 99.8949)" class="st0 st1 st2">la</text>
<g>
	<path class="st0" d="M62.29,115.33c-0.31,0-0.62-0.06-0.91-0.18c-0.29-0.12-0.55-0.3-0.78-0.54c-0.23-0.24-0.41-0.53-0.54-0.87
		s-0.21-0.74-0.21-1.19v-0.02c0-0.45,0.07-0.84,0.21-1.19s0.32-0.63,0.54-0.87c0.22-0.24,0.48-0.42,0.77-0.53
		c0.29-0.12,0.6-0.18,0.92-0.18c0.41,0,0.74,0.08,1,0.24c0.26,0.16,0.49,0.35,0.67,0.56v-2.64h1.52v7.3h-1.52v-0.77
		c-0.19,0.25-0.41,0.46-0.67,0.62C63.02,115.25,62.69,115.33,62.29,115.33z M62.68,114.04c0.18,0,0.35-0.04,0.5-0.1
		c0.16-0.07,0.29-0.17,0.41-0.3c0.12-0.13,0.21-0.29,0.28-0.47c0.07-0.18,0.1-0.39,0.1-0.6v-0.02c0-0.22-0.03-0.42-0.1-0.6
		c-0.07-0.18-0.16-0.34-0.28-0.47c-0.12-0.13-0.25-0.23-0.41-0.3s-0.32-0.1-0.5-0.1s-0.35,0.04-0.5,0.1
		c-0.16,0.07-0.29,0.17-0.42,0.3c-0.12,0.13-0.22,0.29-0.29,0.47c-0.07,0.18-0.1,0.38-0.1,0.61v0.02c0,0.22,0.04,0.42,0.1,0.6
		c0.07,0.18,0.17,0.34,0.29,0.47c0.12,0.13,0.26,0.23,0.42,0.3C62.33,114,62.5,114.04,62.68,114.04z"/>
	<path class="st0" d="M69.38,115.35c-0.4,0-0.77-0.07-1.12-0.2s-0.64-0.32-0.89-0.57s-0.44-0.54-0.58-0.88
		c-0.14-0.34-0.21-0.71-0.21-1.12v-0.02c0-0.38,0.06-0.74,0.2-1.08c0.13-0.34,0.31-0.64,0.54-0.89c0.23-0.25,0.51-0.45,0.83-0.6
		c0.32-0.15,0.68-0.22,1.07-0.22c0.45,0,0.83,0.08,1.16,0.24c0.33,0.16,0.6,0.38,0.81,0.65s0.38,0.58,0.48,0.93s0.16,0.71,0.16,1.1
		c0,0.06,0,0.12-0.01,0.19c0,0.07-0.01,0.14-0.01,0.21h-3.73c0.07,0.35,0.22,0.61,0.45,0.78c0.23,0.18,0.52,0.27,0.86,0.27
		c0.25,0,0.48-0.04,0.68-0.13c0.2-0.09,0.41-0.23,0.62-0.42l0.87,0.77c-0.25,0.31-0.56,0.56-0.92,0.73
		C70.29,115.26,69.87,115.35,69.38,115.35z M70.36,112.13c-0.05-0.34-0.17-0.61-0.36-0.82s-0.45-0.32-0.77-0.32
		c-0.32,0-0.58,0.1-0.77,0.31c-0.2,0.21-0.32,0.48-0.38,0.83H70.36z"/>
	<path class="st0" d="M74.85,115.33c-0.38,0-0.77-0.06-1.17-0.2c-0.4-0.13-0.77-0.33-1.14-0.61l0.65-1
		c0.29,0.21,0.58,0.37,0.88,0.48c0.29,0.11,0.56,0.16,0.81,0.16c0.22,0,0.38-0.04,0.48-0.11c0.1-0.07,0.16-0.17,0.16-0.29v-0.02
		c0-0.08-0.03-0.15-0.09-0.21c-0.06-0.06-0.14-0.11-0.25-0.15c-0.1-0.04-0.22-0.08-0.35-0.12s-0.27-0.08-0.42-0.13
		c-0.19-0.05-0.38-0.12-0.56-0.2c-0.19-0.08-0.36-0.18-0.52-0.3s-0.28-0.27-0.38-0.46s-0.15-0.4-0.15-0.66v-0.02
		c0-0.27,0.05-0.51,0.16-0.72c0.1-0.21,0.24-0.39,0.42-0.54s0.38-0.26,0.62-0.33c0.24-0.07,0.49-0.11,0.77-0.11
		c0.34,0,0.68,0.06,1.03,0.17s0.67,0.26,0.97,0.46l-0.58,1.05c-0.27-0.15-0.53-0.27-0.78-0.36c-0.25-0.09-0.48-0.14-0.67-0.14
		c-0.19,0-0.33,0.04-0.42,0.1s-0.14,0.16-0.14,0.27v0.02c0,0.07,0.03,0.14,0.09,0.19c0.06,0.06,0.14,0.11,0.24,0.16
		c0.1,0.05,0.21,0.1,0.35,0.15c0.13,0.05,0.27,0.09,0.42,0.14c0.19,0.06,0.38,0.13,0.57,0.22s0.37,0.19,0.52,0.3
		c0.15,0.12,0.28,0.27,0.38,0.44s0.15,0.38,0.15,0.63v0.02c0,0.3-0.05,0.56-0.15,0.77c-0.1,0.22-0.25,0.4-0.44,0.54
		c-0.19,0.14-0.4,0.24-0.65,0.31C75.41,115.29,75.14,115.33,74.85,115.33z"/>
</g>
<text transform="matrix(1 0 0 1 58.2759 105.0434)" class="st3 st1 st4">Toque</text>
<g>
	<path class="st3" d="M89.77,124.48c-1.18,0-2.27-0.21-3.28-0.64c-1.01-0.43-1.88-1.01-2.61-1.75c-0.73-0.74-1.31-1.62-1.72-2.63
		c-0.41-1.01-0.62-2.09-0.62-3.23v-0.05c0-1.15,0.21-2.22,0.62-3.22c0.41-1,0.99-1.88,1.72-2.64s1.61-1.35,2.64-1.79
		c1.02-0.44,2.16-0.65,3.39-0.65c0.75,0,1.43,0.06,2.05,0.18s1.18,0.29,1.69,0.5c0.5,0.21,0.97,0.47,1.4,0.78
		c0.43,0.31,0.83,0.64,1.19,1.01l-2.25,2.59c-0.63-0.57-1.27-1.01-1.92-1.33c-0.65-0.32-1.38-0.48-2.19-0.48
		c-0.67,0-1.3,0.13-1.87,0.39c-0.57,0.26-1.07,0.62-1.48,1.08c-0.41,0.46-0.73,0.99-0.96,1.59c-0.23,0.6-0.34,1.25-0.34,1.94v0.05
		c0,0.69,0.11,1.34,0.34,1.95c0.23,0.61,0.55,1.15,0.95,1.6c0.4,0.46,0.89,0.82,1.47,1.09c0.57,0.27,1.2,0.4,1.89,0.4
		c0.92,0,1.69-0.17,2.33-0.5c0.63-0.34,1.26-0.79,1.89-1.38l2.25,2.27c-0.41,0.44-0.84,0.84-1.28,1.19
		c-0.44,0.35-0.93,0.65-1.46,0.91c-0.53,0.25-1.1,0.44-1.73,0.57C91.25,124.42,90.55,124.48,89.77,124.48z"/>
	<path class="st3" d="M98.8,107.46h3.49v6.21c0.2-0.26,0.42-0.51,0.65-0.75c0.24-0.24,0.5-0.45,0.79-0.64
		c0.29-0.18,0.61-0.33,0.96-0.44c0.35-0.11,0.75-0.16,1.19-0.16c1.33,0,2.36,0.41,3.08,1.22c0.73,0.81,1.09,1.93,1.09,3.35v7.96
		h-3.49v-6.84c0-0.82-0.18-1.45-0.55-1.86c-0.37-0.42-0.89-0.63-1.56-0.63c-0.67,0-1.2,0.21-1.59,0.63
		c-0.39,0.42-0.58,1.04-0.58,1.86v6.84H98.8V107.46z"/>
	<path class="st3" d="M118.92,124.48c-0.92,0-1.77-0.15-2.56-0.46s-1.47-0.74-2.04-1.31c-0.57-0.57-1.02-1.23-1.34-2.01
		c-0.32-0.77-0.48-1.63-0.48-2.58v-0.05c0-0.87,0.15-1.7,0.45-2.48s0.71-1.46,1.25-2.04s1.17-1.04,1.92-1.38
		c0.74-0.34,1.56-0.5,2.46-0.5c1.02,0,1.91,0.18,2.66,0.55c0.75,0.37,1.37,0.86,1.87,1.48c0.5,0.62,0.86,1.33,1.1,2.13
		s0.36,1.64,0.36,2.51c0,0.14,0,0.28-0.01,0.44s-0.02,0.31-0.03,0.48h-8.55c0.17,0.79,0.52,1.4,1.04,1.8
		c0.53,0.41,1.18,0.61,1.96,0.61c0.58,0,1.1-0.1,1.56-0.3c0.46-0.2,0.93-0.52,1.42-0.96l1.99,1.77c-0.58,0.72-1.28,1.28-2.11,1.69
		C121,124.28,120.03,124.48,118.92,124.48z M121.16,117.1c-0.11-0.78-0.38-1.41-0.83-1.89c-0.44-0.48-1.03-0.72-1.77-0.72
		c-0.73,0-1.33,0.24-1.78,0.71s-0.75,1.11-0.88,1.9H121.16z"/>
	<path class="st3" d="M127.74,114.9h-1.44v-2.87h1.44v-0.78c0-1.33,0.33-2.32,0.99-2.98c0.64-0.64,1.58-0.96,2.82-0.96
		c0.55,0,1.02,0.03,1.41,0.09s0.75,0.15,1.07,0.25v2.89c-0.26-0.09-0.51-0.16-0.76-0.22c-0.25-0.05-0.52-0.08-0.83-0.08
		c-0.84,0-1.26,0.44-1.26,1.33v0.48h2.82v2.84h-2.78v9.31h-3.49V114.9z"/>
	<path class="st3" d="M136.86,124.34c-1.1-0.47-2.14-1.14-3.13-2.01c-0.99-0.87-1.82-1.93-2.52-3.19l3.12-2.08
		c0.58,0.98,1.23,1.81,1.93,2.47c0.71,0.67,1.43,1.16,2.16,1.47c0.64,0.27,1.15,0.37,1.54,0.28c0.39-0.08,0.66-0.3,0.81-0.65
		l0.02-0.06c0.1-0.23,0.1-0.47,0-0.72c-0.1-0.25-0.27-0.5-0.52-0.75c-0.25-0.25-0.54-0.52-0.87-0.8c-0.34-0.28-0.69-0.58-1.05-0.9
		c-0.47-0.39-0.94-0.81-1.39-1.27c-0.45-0.46-0.83-0.96-1.12-1.51c-0.29-0.55-0.46-1.14-0.52-1.78c-0.06-0.64,0.08-1.34,0.4-2.09
		l0.02-0.06c0.34-0.79,0.79-1.42,1.35-1.9c0.56-0.48,1.18-0.82,1.88-1.03c0.69-0.2,1.43-0.27,2.2-0.18
		c0.78,0.08,1.56,0.29,2.35,0.63c0.98,0.42,1.91,1.01,2.79,1.76c0.88,0.75,1.62,1.59,2.22,2.51l-2.98,2.32
		c-0.58-0.77-1.18-1.45-1.8-2.02s-1.21-0.98-1.77-1.22c-0.54-0.23-0.99-0.3-1.34-0.22c-0.36,0.09-0.6,0.28-0.73,0.59l-0.02,0.06
		c-0.09,0.21-0.09,0.44,0.02,0.67c0.1,0.24,0.27,0.49,0.5,0.76s0.5,0.55,0.82,0.85s0.66,0.6,1.03,0.92
		c0.46,0.41,0.92,0.85,1.38,1.33c0.46,0.48,0.83,0.99,1.12,1.53c0.29,0.54,0.48,1.12,0.55,1.74c0.07,0.63-0.04,1.29-0.35,2.01
		l-0.02,0.06c-0.37,0.87-0.84,1.55-1.41,2.05c-0.57,0.5-1.21,0.83-1.92,1.01c-0.71,0.17-1.48,0.21-2.29,0.1
		C138.5,124.93,137.69,124.7,136.86,124.34z"/>
	<path class="st3" d="M140.22,124.44c-0.87,0-1.76-0.15-2.67-0.45c-0.91-0.3-1.78-0.77-2.6-1.41l1.49-2.29
		c0.67,0.49,1.34,0.86,2.01,1.1s1.29,0.37,1.87,0.37c0.5,0,0.88-0.08,1.11-0.25c0.24-0.17,0.36-0.39,0.36-0.67v-0.05
		c0-0.18-0.07-0.34-0.21-0.48c-0.14-0.14-0.32-0.26-0.56-0.36c-0.24-0.1-0.51-0.19-0.81-0.29c-0.31-0.09-0.63-0.19-0.96-0.3
		c-0.43-0.12-0.86-0.27-1.3-0.45s-0.83-0.4-1.18-0.69c-0.35-0.28-0.64-0.63-0.86-1.04c-0.22-0.41-0.33-0.92-0.33-1.51v-0.05
		c0-0.63,0.12-1.18,0.36-1.66c0.24-0.48,0.56-0.89,0.96-1.23c0.41-0.34,0.88-0.59,1.42-0.76c0.54-0.17,1.13-0.25,1.75-0.25
		c0.78,0,1.57,0.13,2.37,0.38c0.8,0.25,1.54,0.6,2.21,1.04l-1.33,2.41c-0.61-0.35-1.21-0.63-1.79-0.84s-1.09-0.31-1.54-0.31
		c-0.43,0-0.75,0.08-0.96,0.24c-0.21,0.16-0.32,0.36-0.32,0.61v0.05c0,0.17,0.07,0.32,0.21,0.45c0.14,0.13,0.32,0.25,0.55,0.37
		s0.49,0.23,0.79,0.33s0.62,0.21,0.95,0.32c0.43,0.14,0.86,0.3,1.31,0.49c0.44,0.19,0.84,0.42,1.19,0.7
		c0.35,0.27,0.64,0.61,0.87,1.01c0.23,0.4,0.34,0.88,0.34,1.44v0.05c0,0.69-0.12,1.28-0.36,1.78c-0.24,0.5-0.57,0.91-1,1.23
		c-0.43,0.32-0.93,0.56-1.5,0.72C141.49,124.35,140.88,124.44,140.22,124.44z"/>
</g>
</svg>
